<?xml version="1.0" standalone="no"?><!DOCTYPE svg PUBLIC "-//W3C//DTD SVG 1.1//EN" "http://www.w3.org/Graphics/SVG/1.1/DTD/svg11.dtd"><svg t="1520838202156" class="icon" style="" viewBox="0 0 1024 1024" version="1.1" xmlns="http://www.w3.org/2000/svg" p-id="4086" xmlns:xlink="http://www.w3.org/1999/xlink" width="200" height="200"><defs><style type="text/css"></style></defs><path d="M832.141344 341.407694c14.395872 0 27.166733 5.891174 38.295188 17.672498 11.128455 11.782348 16.692171 24.879644 16.692171 39.284725l0 245.50139c0 13.08911-5.563716 25.239847-16.692171 36.334533-11.128455 11.128455-23.899316 16.692171-38.295188 16.692171L119.209032 696.893011c-13.097296 0-25.206078-5.563716-36.334533-16.692171-11.128455-11.094686-16.700357-23.245424-16.700357-36.334533l0-245.50139c0-14.405081 5.572926-27.502377 16.700357-39.284725 11.128455-11.782348 23.237237-17.672498 36.334533-17.672498L832.141344 341.407694zM898.91105 453.352275c22.265096 0 36.996612 5.891174 44.194548 17.681708 7.197936 11.782348 10.800997 28.189016 10.800997 49.097208 0 20.949124-3.603061 37.642319-10.800997 50.085722-7.197936 12.477172-21.929452 18.652825-44.194548 18.652825L898.91105 453.352275z" p-id="4087" fill="#1afa29"></path></svg>