<?xml version="1.0" standalone="no"?><!DOCTYPE svg PUBLIC "-//W3C//DTD SVG 1.1//EN" "http://www.w3.org/Graphics/SVG/1.1/DTD/svg11.dtd"><svg t="1520921404309" class="icon" style="" viewBox="0 0 1171 1024" version="1.1" xmlns="http://www.w3.org/2000/svg" p-id="3048" xmlns:xlink="http://www.w3.org/1999/xlink" width="228.7109375" height="200"><defs><style type="text/css"></style></defs><path d="M585.142857 365.714286c-120.685714 0-219.428571 98.742857-219.428571 219.428571s98.742857 219.428571 219.428571 219.428571 219.428571-98.742857 219.428571-219.428571S705.828571 365.714286 585.142857 365.714286zM1024 146.285714l-109.714286 0-36.571429-73.142857c-21.942857-43.885714-32.914286-73.142857-73.142857-73.142857L365.714286 0C325.485714 0 310.857143 36.571429 292.571429 73.142857L256 146.285714 146.285714 146.285714C65.828571 146.285714 0 212.114286 0 292.571429l0 585.142857c0 80.457143 65.828571 146.285714 146.285714 146.285714l877.714286 0c80.457143 0 146.285714-65.828571 146.285714-146.285714L1170.285714 292.571429C1170.285714 212.114286 1104.457143 146.285714 1024 146.285714zM585.142857 877.714286c-160.914286 0-292.571429-131.657143-292.571429-292.571429s131.657143-292.571429 292.571429-292.571429 292.571429 131.657143 292.571429 292.571429S746.057143 877.714286 585.142857 877.714286z" p-id="3049" fill="#e6e6e6"></path></svg>