<?xml version="1.0" standalone="no"?><!DOCTYPE svg PUBLIC "-//W3C//DTD SVG 1.1//EN" "http://www.w3.org/Graphics/SVG/1.1/DTD/svg11.dtd"><svg t="1520920119970" class="icon" style="" viewBox="0 0 1024 1024" version="1.1" xmlns="http://www.w3.org/2000/svg" p-id="8987" xmlns:xlink="http://www.w3.org/1999/xlink" width="200" height="200"><defs><style type="text/css"></style></defs><path d="M512 0C228.266667 0 0 228.266667 0 512s228.266667 512 512 512 512-228.266667 512-512S795.733333 0 512 0zM192 448c0-36.266667 27.733333-64 64-64s64 27.733333 64 64-27.733333 64-64 64-64-27.733333-64-64z m546.133333 290.133333c-66.133333 49.066667-142.933333 74.666667-226.133333 74.666667-83.2 0-160-25.6-226.133333-74.666667-8.533333-6.4-10.666667-21.333333-4.266667-29.866666 6.4-8.533333 21.333333-10.666667 29.866667-4.266667 57.6 42.666667 128 66.133333 200.533333 66.133333 72.533333 0 142.933333-23.466667 200.533333-66.133333 8.533333-6.4 23.466667-4.266667 29.866667 4.266667 8.533333 8.533333 6.4 21.333333-4.266667 29.866666zM768 512c-36.266667 0-64-27.733333-64-64s27.733333-64 64-64 64 27.733333 64 64-27.733333 64-64 64z" fill="#f4ea2a" p-id="8988"></path></svg>