<?xml version="1.0" standalone="no"?><!DOCTYPE svg PUBLIC "-//W3C//DTD SVG 1.1//EN" "http://www.w3.org/Graphics/SVG/1.1/DTD/svg11.dtd"><svg t="1520919764185" class="icon" style="" viewBox="0 0 1024 1024" version="1.1" xmlns="http://www.w3.org/2000/svg" p-id="2925" xmlns:xlink="http://www.w3.org/1999/xlink" width="200" height="200"><defs><style type="text/css"></style></defs><path d="M924.810419 346.719676l0-125.891222c0-19.968797-16.104793-35.96819-35.985586-35.96819L97.545128 184.860265c-19.880793 0-35.985586 16.104793-35.985586 35.96819l0 575.501266c0 19.96982 16.104793 35.96819 35.985586 35.96819l791.279704 0c19.880793 0 35.985586-16.104793 35.985586-35.96819L924.810419 634.471332 583.19397 634.471332c-19.916609 0-36.055171-16.08842-36.055171-35.863812l0-216.024032c0-19.810185 16.138562-35.862789 36.055171-35.862789L924.810419 346.720699zM601.091596 436.642708c0-19.863397 16.156982-35.969213 35.809577-35.969213l288.066835 0c19.776416 0 35.811624 15.9646 35.811624 35.969213L960.779631 544.549324c0 19.862373-16.159028 35.967166-35.811624 35.967166L636.901173 580.51649c-19.776416 0-35.809577-15.9646-35.809577-35.967166L601.091596 436.642708zM691.012581 526.564717c19.86442 0 35.969213-16.104793 35.969213-35.969213 0-19.863397-16.104793-35.96819-35.969213-35.96819s-35.969213 16.104793-35.969213 35.96819C655.043369 510.458901 671.148162 526.564717 691.012581 526.564717z" p-id="2926" fill="#13227a"></path></svg>